STARTFONT 2.1
COMMENT 
COMMENT This file has been produced by ttf2bdf written by Subhabrata Biswas
COMMENT 
COMMENT For comments, questions, bug reports, send a mail to
COMMENT                                           subhabrata.biswas@usa.net
COMMENT 
FONT -*-Highway Gothic-Medium-R-Normal--40-300-96-96-c-19--fontspecific
SIZE 30 96 96
FONTBOUNDINGBOX 40 45 -1 -10
STARTPROPERTIES 15
FOUNDRY "Misc"
FAMILY_NAME "Highway Gothic"
WEIGHT_NAME "Medium"
SLANT "R"
SETWIDTH_NAME "Normal"
PIXEL_SIZE -1
POINT_SIZE 300
RESOLUTION_X 96
RESOLUTION_Y 96
SPACING "C"
CHARSET_ENCODING "fontspecific"
FONT_ASCENT 35
FONT_DESCENT 10
DEFAULT_CHAR 31
COPYRIGHT "You may wish to put your copyright here"
ENDPROPERTIES
CHARS 226
STARTCHAR C0030
ENCODING 30
SWIDTH 500 0
DWIDTH 20 0
BBX 15 32 3 0
BITMAP
FFFE
FFFE
C00E
C00E
C00E
C00E
C00E
C00E
C00E
C00E
C00E
C00E
C00E
C00E
C00E
C00E
C00E
C00E
C00E
C00E
C00E
C00E
C00E
C00E
C00E
C00E
C00E
C00E
C00E
FFFE
FFFE
FFFE
ENDCHAR
STARTCHAR C0031
ENCODING 31
SWIDTH 500 0
DWIDTH 20 0
BBX 15 32 3 0
BITMAP
FFFE
FFFE
C00E
C00E
C00E
C00E
C00E
C00E
C00E
C00E
C00E
C00E
C00E
C00E
C00E
C00E
C00E
C00E
C00E
C00E
C00E
C00E
C00E
C00E
C00E
C00E
C00E
C00E
C00E
FFFE
FFFE
FFFE
ENDCHAR
STARTCHAR C0032- 
ENCODING 32
SWIDTH 250 0
DWIDTH 10 0
BBX 1 1 0 -1
BITMAP
00
ENDCHAR
STARTCHAR C0033-!
ENCODING 33
SWIDTH 200 0
DWIDTH 8 0
BBX 4 27 2 0
BITMAP
F0
F0
F0
F0
F0
F0
F0
F0
F0
F0
F0
F0
F0
F0
F0
F0
F0
70
70
60
00
00
00
60
F0
F0
60
ENDCHAR
STARTCHAR C0034-"
ENCODING 34
SWIDTH 425 0
DWIDTH 17 0
BBX 11 11 3 16
BITMAP
F1E0
F1E0
F1E0
F0E0
F0E0
F0E0
F0E0
F0E0
F0E0
E0E0
60E0
ENDCHAR
STARTCHAR C0035-#
ENCODING 35
SWIDTH 650 0
DWIDTH 26 0
BBX 22 27 2 0
BITMAP
01E1E0
01C1E0
03C1E0
03C1E0
03C1E0
03C1C0
03C3C0
0383C0
7FFFFC
7FFFFC
7FFFFC
078380
078780
078780
070780
0F0780
FFFFF8
FFFFF8
FFFFF8
0F0F00
0E0F00
0E0F00
1E0F00
1E0F00
1E1E00
1E1E00
1E1E00
ENDCHAR
STARTCHAR C0036-$
ENCODING 36
SWIDTH 500 0
DWIDTH 20 0
BBX 18 35 1 -5
BITMAP
00F000
00F000
00F000
03F000
0FF800
1FFE00
3FFE00
3E1F00
780C00
780000
780000
7C0000
7E0000
3FE000
3FFC00
0FFE00
03FF00
003F80
000F80
0007C0
0003C0
0003C0
1003C0
7803C0
FC0780
7E1F80
3FFF00
1FFE00
0FFC00
03F000
00F000
00F000
00F000
00F000
00F000
ENDCHAR
STARTCHAR C0037-%
ENCODING 37
SWIDTH 475 0
DWIDTH 19 0
BBX 17 27 1 0
BITMAP
1C0180
220300
410300
400600
400400
410C00
220800
1C1800
003000
003000
006000
006000
00C000
008000
018000
030000
030000
060000
060000
0C3C00
086200
18C100
10C000
30C000
60C100
606200
C03C00
ENDCHAR
STARTCHAR C0038-&
ENCODING 38
SWIDTH 600 0
DWIDTH 24 0
BBX 21 28 2 -1
BITMAP
01F000
07F800
0FFC00
0FFE00
1F1E00
1E0800
1E0000
1E0000
1F0000
0F0000
0F8000
0FC000
1FC000
3FE000
3FF000
7DF1C0
78F9C0
F87FC0
F07FC0
F03F80
F01F80
F01F80
F81F80
7C7FC0
7FFFE0
3FF9F0
1FF0F0
07E008
ENDCHAR
STARTCHAR C0039-'
ENCODING 39
SWIDTH 250 0
DWIDTH 10 0
BBX 4 11 3 16
BITMAP
F0
F0
F0
F0
F0
F0
F0
F0
70
70
70
ENDCHAR
STARTCHAR C0040-(
ENCODING 40
SWIDTH 275 0
DWIDTH 11 0
BBX 8 31 2 -3
BITMAP
0F
1E
1C
3C
38
38
70
70
70
70
E0
E0
E0
E0
E0
E0
E0
E0
E0
E0
E0
70
70
70
70
38
38
3C
1C
1E
0F
ENDCHAR
STARTCHAR C0041-)
ENCODING 41
SWIDTH 300 0
DWIDTH 12 0
BBX 8 31 2 -3
BITMAP
F0
78
38
3C
1C
1C
0E
0E
0E
0E
07
07
07
07
07
07
07
07
07
07
07
0E
0E
0E
0E
1C
1C
3C
38
78
F0
ENDCHAR
STARTCHAR C0042-*
ENCODING 42
SWIDTH 450 0
DWIDTH 18 0
BBX 13 14 3 13
BITMAP
0700
0700
0700
8700
F778
FFF8
FFF8
3FE0
0F80
1FC0
3DE0
7CF0
38E0
1040
ENDCHAR
STARTCHAR C0043-+
ENCODING 43
SWIDTH 500 0
DWIDTH 20 0
BBX 18 18 1 4
BITMAP
01E000
01E000
01E000
01E000
01E000
01E000
01E000
FFFFC0
FFFFC0
FFFFC0
FFFFC0
01E000
01E000
01E000
01E000
01E000
01E000
01E000
ENDCHAR
STARTCHAR C0044-,
ENCODING 44
SWIDTH 200 0
DWIDTH 8 0
BBX 4 8 2 -4
BITMAP
60
F0
F0
70
30
20
60
80
ENDCHAR
STARTCHAR C0045--
ENCODING 45
SWIDTH 300 0
DWIDTH 12 0
BBX 9 4 1 11
BITMAP
FF80
FF80
FF80
FF80
ENDCHAR
STARTCHAR C0046-.
ENCODING 46
SWIDTH 200 0
DWIDTH 8 0
BBX 4 4 2 0
BITMAP
60
F0
F0
60
ENDCHAR
STARTCHAR C0047-/
ENCODING 47
SWIDTH 475 0
DWIDTH 19 0
BBX 19 27 0 0
BITMAP
0001E0
0001C0
0003C0
000780
000780
000F00
000F00
001E00
001C00
003C00
007800
007800
00F000
00F000
01E000
01C000
03C000
078000
078000
0F0000
0F0000
1E0000
1C0000
3C0000
780000
780000
F00000
ENDCHAR
STARTCHAR C0048-0
ENCODING 48
SWIDTH 575 0
DWIDTH 23 0
BBX 20 27 1 0
BITMAP
01F800
07FE00
1FFF80
1FFF80
3F0FC0
7C03E0
7C03E0
7801E0
F801F0
F000F0
F000F0
F000F0
F000F0
F000F0
F000F0
F000F0
F000F0
F000F0
F801F0
7801E0
7801E0
7C03E0
3E0FC0
1FFF80
1FFF80
07FE00
01F800
ENDCHAR
STARTCHAR C0049-1
ENCODING 49
SWIDTH 325 0
DWIDTH 13 0
BBX 7 27 3 0
BITMAP
1E
3E
FE
FE
FE
1E
1E
1E
1E
1E
1E
1E
1E
1E
1E
1E
1E
1E
1E
1E
1E
1E
1E
1E
1E
1E
1E
ENDCHAR
STARTCHAR C0050-2
ENCODING 50
SWIDTH 575 0
DWIDTH 23 0
BBX 18 27 3 0
BITMAP
03F000
0FFC00
1FFF00
3FFF80
7E0F80
FC07C0
F803C0
1003C0
0003C0
0007C0
000F80
001F80
007F00
01FE00
03FC00
07F800
0FE000
1F8000
1F0000
3E0000
7C0000
7C0000
780000
FFFFC0
FFFFC0
FFFFC0
FFFFC0
ENDCHAR
STARTCHAR C0051-3
ENCODING 51
SWIDTH 550 0
DWIDTH 22 0
BBX 18 27 2 0
BITMAP
03F000
0FFC00
1FFE00
3FFF00
7E1F00
7C0F80
080780
000780
000780
000F80
007F80
007F00
007F00
007F80
001F80
0007C0
0003C0
0003C0
0003C0
1003C0
7803C0
FC0780
7E1F80
7FFF00
3FFE00
1FFC00
03F000
ENDCHAR
STARTCHAR C0052-4
ENCODING 52
SWIDTH 550 0
DWIDTH 22 0
BBX 20 27 1 0
BITMAP
000780
000F80
001F80
003F80
007F80
007F80
00FF80
01F780
03F780
03E780
07C780
0F8780
1F0780
3F0780
3E0780
7C0780
FFFFF0
FFFFF0
FFFFF0
FFFFF0
000780
000780
000780
000780
000780
000780
000780
ENDCHAR
STARTCHAR C0053-5
ENCODING 53
SWIDTH 550 0
DWIDTH 22 0
BBX 18 27 2 0
BITMAP
7FFF80
7FFF80
7FFF80
7FFF80
780000
780000
780000
780000
7BF000
7FFC00
7FFF00
7FFF00
7E0F80
3C0780
0003C0
0003C0
0003C0
0003C0
0003C0
0007C0
000F80
001F80
307F00
7FFE00
7FFC00
FFF800
3FC000
ENDCHAR
STARTCHAR C0054-6
ENCODING 54
SWIDTH 550 0
DWIDTH 22 0
BBX 18 27 2 0
BITMAP
006000
00E000
01F000
03F000
07E000
0FC000
0F8000
1F0000
1E0000
3E0000
3C0000
7FF000
7FFC00
7FFF00
FFFF00
FC1F80
F807C0
F003C0
F003C0
F003C0
F003C0
F807C0
7E1F80
3FFF80
1FFF00
0FFC00
03F000
ENDCHAR
STARTCHAR C0055-7
ENCODING 55
SWIDTH 550 0
DWIDTH 22 0
BBX 18 27 2 0
BITMAP
FFFFC0
FFFFC0
FFFFC0
FFFFC0
000FC0
000F80
001F00
001F00
003E00
003E00
003C00
007C00
007800
007800
00F800
00F000
00F000
01F000
01E000
01E000
01E000
01E000
03E000
03C000
03C000
03C000
03C000
ENDCHAR
STARTCHAR C0056-8
ENCODING 56
SWIDTH 550 0
DWIDTH 22 0
BBX 18 27 2 0
BITMAP
03F000
0FFC00
1FFE00
3FFF00
3E1F00
7C0F80
780780
780780
780780
7E1F80
3FFF00
3FFE00
1FFF00
3FFF80
7E1F80
F807C0
F003C0
F003C0
F003C0
F003C0
F807C0
780780
7E1F80
3FFF00
1FFE00
0FFC00
03F000
ENDCHAR
STARTCHAR C0057-9
ENCODING 57
SWIDTH 550 0
DWIDTH 22 0
BBX 18 27 2 0
BITMAP
03F000
0FFC00
3FFF00
7FFF00
7E1F80
F807C0
F003C0
F003C0
F003C0
F003C0
F807C0
7E0FC0
3FFFC0
3FFF80
0FFF80
03FF80
000F00
001F00
001E00
003E00
007C00
00FC00
01F800
03F000
03E000
01C000
018000
ENDCHAR
STARTCHAR C0058-:
ENCODING 58
SWIDTH 200 0
DWIDTH 8 0
BBX 4 20 2 0
BITMAP
60
F0
F0
60
00
00
00
00
00
00
00
00
00
00
00
00
60
F0
F0
60
ENDCHAR
STARTCHAR C0059-;
ENCODING 59
SWIDTH 200 0
DWIDTH 8 0
BBX 4 24 2 -4
BITMAP
60
F0
F0
60
00
00
00
00
00
00
00
00
00
00
00
00
60
F0
F0
70
30
20
60
80
ENDCHAR
STARTCHAR C0060-<
ENCODING 60
SWIDTH 575 0
DWIDTH 23 0
BBX 19 20 2 4
BITMAP
000020
0000E0
0007E0
001FE0
007F80
01FE00
0FF000
3FC000
FF0000
F80000
F80000
FF0000
3FC000
0FF000
01FE00
007F80
001FE0
0007E0
0000E0
000020
ENDCHAR
STARTCHAR C0061-=
ENCODING 61
SWIDTH 500 0
DWIDTH 20 0
BBX 18 12 1 7
BITMAP
FFFFC0
FFFFC0
FFFFC0
FFFFC0
000000
000000
000000
000000
FFFFC0
FFFFC0
FFFFC0
FFFFC0
ENDCHAR
STARTCHAR C0062->
ENCODING 62
SWIDTH 575 0
DWIDTH 23 0
BBX 19 20 2 4
BITMAP
800000
F00000
FC0000
FF0000
3FE000
07F800
01FE00
007F80
000FE0
0003E0
0003E0
000FE0
007F80
01FE00
07F800
3FC000
FF0000
FC0000
F00000
800000
ENDCHAR
STARTCHAR C0063-?
ENCODING 63
SWIDTH 525 0
DWIDTH 21 0
BBX 17 27 2 0
BITMAP
03F000
0FFC00
1FFE00
3FFF00
7E1F00
780F80
B80780
100780
000780
000F00
001F00
003E00
003C00
007C00
00F800
00F000
01E000
01E000
03C000
03C000
000000
000000
000000
018000
03C000
03C000
018000
ENDCHAR
STARTCHAR C0064-@
ENCODING 64
SWIDTH 700 0
DWIDTH 28 0
BBX 27 28 1 -1
BITMAP
003FC000
00FFF800
03FFFC00
07E03F00
0F000F80
1E000780
3C1F03C0
387FC1C0
707FC1E0
7021E0E0
F000E0E0
E03FE0E0
E0FFE0E0
E0FFE0E0
E1E0E1E0
E1C0E1C0
E1E0E3C0
E1FFE780
70FFFF80
703F7F00
78003C00
3C000000
3E000000
1F000000
0FC01C00
07FFFC00
01FFFC00
003FE000
ENDCHAR
STARTCHAR C0065-A
ENCODING 65
SWIDTH 600 0
DWIDTH 24 0
BBX 22 27 1 0
BITMAP
007800
00FC00
00FC00
00FC00
01FE00
01FE00
01FE00
03FF00
03EF00
03CF00
07CF80
07C780
078780
0F87C0
0F83C0
0FFFE0
1FFFE0
1FFFE0
1FFFF0
3E01F0
3C00F0
3C00F8
7C00F8
780078
78007C
F8007C
F0003C
ENDCHAR
STARTCHAR C0066-B
ENCODING 66
SWIDTH 575 0
DWIDTH 23 0
BBX 18 27 2 0
BITMAP
FFF800
FFFE00
FFFF00
FFFF80
F00FC0
F007C0
F007C0
F007C0
F007C0
F007C0
F00F80
FFFF80
FFFF00
FFFF00
FFFF80
F00F80
F007C0
F003C0
F003C0
F003C0
F003C0
F007C0
F00F80
FFFF80
FFFF00
FFFE00
FFF800
ENDCHAR
STARTCHAR C0067-C
ENCODING 67
SWIDTH 550 0
DWIDTH 22 0
BBX 18 27 2 0
BITMAP
03F800
0FFE00
1FFF00
3FFF80
3E0F80
7C0740
780400
780000
F80000
F00000
F00000
F00000
F00000
F00000
F00000
F00000
F00000
F00000
F80000
780000
780400
7C0700
3E0FC0
3FFF80
1FFF00
0FFE00
03F800
ENDCHAR
STARTCHAR C0068-D
ENCODING 68
SWIDTH 550 0
DWIDTH 22 0
BBX 18 27 2 0
BITMAP
FFE000
FFF800
FFFC00
FFFE00
F03F00
F00F80
F00F80
F00780
F007C0
F003C0
F003C0
F003C0
F003C0
F003C0
F003C0
F003C0
F003C0
F003C0
F007C0
F00780
F00F80
F00F80
F03F00
FFFE00
FFFC00
FFF800
FFE000
ENDCHAR
STARTCHAR C0069-E
ENCODING 69
SWIDTH 525 0
DWIDTH 21 0
BBX 16 27 2 0
BITMAP
FFFF
FFFF
FFFF
FFFF
F000
F000
F000
F000
F000
F000
F000
FFF0
FFF0
FFF0
FFF0
F000
F000
F000
F000
F000
F000
F000
F000
FFFF
FFFF
FFFF
FFFF
ENDCHAR
STARTCHAR C0070-F
ENCODING 70
SWIDTH 525 0
DWIDTH 21 0
BBX 16 27 2 0
BITMAP
FFFF
FFFF
FFFF
FFFF
F000
F000
F000
F000
F000
F000
F000
FFF0
FFF0
FFF0
FFF0
F000
F000
F000
F000
F000
F000
F000
F000
F000
F000
F000
F000
ENDCHAR
STARTCHAR C0071-G
ENCODING 71
SWIDTH 575 0
DWIDTH 23 0
BBX 19 27 2 0
BITMAP
03F800
0FFE00
1FFF00
3FFF80
3E0F80
7C0740
780400
780000
F80000
F00000
F00000
F00000
F00000
F00000
F03FE0
F03FE0
F03FE0
F03FE0
F803E0
7803E0
7807C0
7C07C0
3E0F80
1FFF80
1FFF00
07FE00
01F800
ENDCHAR
STARTCHAR C0072-H
ENCODING 72
SWIDTH 550 0
DWIDTH 22 0
BBX 18 27 2 0
BITMAP
F003C0
F003C0
F003C0
F003C0
F003C0
F003C0
F003C0
F003C0
F003C0
F003C0
F003C0
FFFFC0
FFFFC0
FFFFC0
FFFFC0
F003C0
F003C0
F003C0
F003C0
F003C0
F003C0
F003C0
F003C0
F003C0
F003C0
F003C0
F003C0
ENDCHAR
STARTCHAR C0073-I
ENCODING 73
SWIDTH 275 0
DWIDTH 11 0
BBX 4 27 3 0
BITMAP
F0
F0
F0
F0
F0
F0
F0
F0
F0
F0
F0
F0
F0
F0
F0
F0
F0
F0
F0
F0
F0
F0
F0
F0
F0
F0
F0
ENDCHAR
STARTCHAR C0074-J
ENCODING 74
SWIDTH 525 0
DWIDTH 21 0
BBX 18 27 1 0
BITMAP
0003C0
0003C0
0003C0
0003C0
0003C0
0003C0
0003C0
0003C0
0003C0
0003C0
0003C0
0003C0
0003C0
0003C0
0003C0
0003C0
0003C0
0003C0
0003C0
1803C0
7803C0
FC0780
7F0F80
3FFF80
1FFF00
0FFE00
01F800
ENDCHAR
STARTCHAR C0075-K
ENCODING 75
SWIDTH 550 0
DWIDTH 22 0
BBX 18 27 2 0
BITMAP
F00FC0
F01F80
F03F00
F03E00
F07C00
F0FC00
F1F800
F1F000
F3E000
F7C000
FFC000
FFC000
FFE000
FFE000
FFF000
FDF000
F8F800
F07800
F07C00
F03C00
F03E00
F01F00
F01F00
F00F80
F00F80
F007C0
F007C0
ENDCHAR
STARTCHAR C0076-L
ENCODING 76
SWIDTH 525 0
DWIDTH 21 0
BBX 16 27 2 0
BITMAP
F000
F000
F000
F000
F000
F000
F000
F000
F000
F000
F000
F000
F000
F000
F000
F000
F000
F000
F000
F000
F000
F000
F000
FFFF
FFFF
FFFF
FFFF
ENDCHAR
STARTCHAR C0077-M
ENCODING 77
SWIDTH 625 0
DWIDTH 25 0
BBX 21 27 2 0
BITMAP
F00078
F800F8
F800F8
FC01F8
FC01F8
FC01F8
FE03F8
FE03F8
FF07F8
FF07F8
FF8FF8
FF8FF8
FF8FF8
F7DF78
F7DF78
F3FE78
F3FE78
F1FC78
F1FC78
F1FC78
F0F878
F0F878
F07078
F07078
F07078
F02078
F02078
ENDCHAR
STARTCHAR C0078-N
ENCODING 78
SWIDTH 550 0
DWIDTH 22 0
BBX 18 27 2 0
BITMAP
F003C0
F803C0
F803C0
FC03C0
FE03C0
FE03C0
FF03C0
FF03C0
FF83C0
FFC3C0
F7C3C0
F3E3C0
F3E3C0
F1F3C0
F1F3C0
F0FBC0
F0FFC0
F07FC0
F07FC0
F03FC0
F01FC0
F01FC0
F00FC0
F00FC0
F007C0
F007C0
F003C0
ENDCHAR
STARTCHAR C0079-O
ENCODING 79
SWIDTH 575 0
DWIDTH 23 0
BBX 20 27 1 0
BITMAP
01F800
07FE00
1FFF80
1FFF80
3F0FC0
7C03E0
7C03E0
7801E0
F801F0
F000F0
F000F0
F000F0
F000F0
F000F0
F000F0
F000F0
F000F0
F000F0
F801F0
7801E0
7801E0
7C03E0
3E0FC0
1FFF80
1FFF80
07FE00
01F800
ENDCHAR
STARTCHAR C0080-P
ENCODING 80
SWIDTH 550 0
DWIDTH 22 0
BBX 18 27 2 0
BITMAP
FFF800
FFFE00
FFFF00
FFFF80
F00F80
F007C0
F003C0
F003C0
F003C0
F003C0
F00780
FFFF80
FFFF00
FFFE00
FFF800
F00000
F00000
F00000
F00000
F00000
F00000
F00000
F00000
F00000
F00000
F00000
F00000
ENDCHAR
STARTCHAR C0081-Q
ENCODING 81
SWIDTH 575 0
DWIDTH 23 0
BBX 20 30 1 -3
BITMAP
01F800
07FE00
1FFF80
1FFF80
3F0FC0
7C03E0
7C03E0
7801E0
F801F0
F000F0
F000F0
F000F0
F000F0
F000F0
F000F0
F000F0
F008F0
F018F0
F87DF0
787FE0
783FE0
7C1FE0
3E1FE0
1FFFC0
1FFFC0
07FFC0
01FFE0
0001E0
0001C0
000080
ENDCHAR
STARTCHAR C0082-R
ENCODING 82
SWIDTH 550 0
DWIDTH 22 0
BBX 18 27 2 0
BITMAP
FFF800
FFFC00
FFFE00
FFFF00
F00F00
F00780
F00780
F00780
F00780
F00780
F00F00
FFFF00
FFFE00
FFFC00
FFF800
F07800
F07C00
F03C00
F03C00
F03E00
F01E00
F01F00
F01F00
F00F00
F00F80
F00F80
F007C0
ENDCHAR
STARTCHAR C0083-S
ENCODING 83
SWIDTH 500 0
DWIDTH 20 0
BBX 18 27 1 0
BITMAP
03F000
0FF800
1FFE00
3FFE00
3E1F00
780C00
780000
780000
7C0000
7E0000
3FE000
3FFC00
0FFE00
03FF00
003F80
000F80
0007C0
0003C0
0003C0
1003C0
7803C0
FC0780
7E1F80
3FFF00
1FFE00
0FFC00
03F000
ENDCHAR
STARTCHAR C0084-T
ENCODING 84
SWIDTH 525 0
DWIDTH 21 0
BBX 16 27 2 0
BITMAP
FFFF
FFFF
FFFF
FFFF
03C0
03C0
03C0
03C0
03C0
03C0
03C0
03C0
03C0
03C0
03C0
03C0
03C0
03C0
03C0
03C0
03C0
03C0
03C0
03C0
03C0
03C0
03C0
ENDCHAR
STARTCHAR C0085-U
ENCODING 85
SWIDTH 550 0
DWIDTH 22 0
BBX 18 27 2 0
BITMAP
F003C0
F003C0
F003C0
F003C0
F003C0
F003C0
F003C0
F003C0
F003C0
F003C0
F003C0
F003C0
F003C0
F003C0
F003C0
F003C0
F003C0
F003C0
F003C0
F003C0
F807C0
780780
7E1F80
3FFF00
1FFE00
0FFC00
03F000
ENDCHAR
STARTCHAR C0086-V
ENCODING 86
SWIDTH 550 0
DWIDTH 22 0
BBX 20 27 1 0
BITMAP
F800F0
F801F0
7801E0
7801E0
7C03E0
3C03E0
3C03C0
3E07C0
3E07C0
1E0780
1F0F80
1F0F80
0F0F00
0F9F00
0F9F00
079E00
07DE00
07FE00
03FE00
03FC00
03FC00
03FC00
01F800
01F800
01F800
00F000
00F000
ENDCHAR
STARTCHAR C0087-W
ENCODING 87
SWIDTH 625 0
DWIDTH 25 0
BBX 24 27 1 0
BITMAP
F07C1F
F07C1E
F07C1E
F87E1E
F87E1E
78FE3E
78FE3E
78FF3C
78FF3C
7DFF3C
7DEF3C
7DEFBC
3DEFFC
3FE7FC
3FC7F8
3FC7F8
3FC7F8
3FC3F8
1FC3F8
1F83F8
1F83F8
1F81F0
1F81F0
1F01F0
1F01F0
0F00F0
0F00F0
ENDCHAR
STARTCHAR C0088-X
ENCODING 88
SWIDTH 525 0
DWIDTH 21 0
BBX 18 27 1 0
BITMAP
7C07C0
7C0F80
3E0F80
3E1F00
1F1F00
1F1E00
0FBE00
0FBC00
07FC00
07F800
03F800
03F000
01F000
01F000
03F000
03F800
07F800
07FC00
0FBC00
0FBE00
1F1E00
1F1F00
3E1F00
3E0F80
7C0F80
7C07C0
F807C0
ENDCHAR
STARTCHAR C0089-Y
ENCODING 89
SWIDTH 625 0
DWIDTH 25 0
BBX 22 27 2 0
BITMAP
F8007C
7C00F8
7C00F8
3E01F0
3E01F0
1F03E0
0F87C0
0F87C0
07CF80
07CF00
03FF00
01FE00
01FE00
00FC00
007800
007800
007800
007800
007800
007800
007800
007800
007800
007800
007800
007800
007800
ENDCHAR
STARTCHAR C0090-Z
ENCODING 90
SWIDTH 525 0
DWIDTH 21 0
BBX 19 27 1 0
BITMAP
7FFFE0
7FFFE0
7FFFE0
7FFFE0
000FC0
000FC0
001F80
001F00
003F00
007E00
007C00
00FC00
01F800
01F000
03F000
07E000
07C000
0FC000
1F8000
1F0000
3F0000
7E0000
7C0000
FFFFE0
FFFFE0
FFFFE0
FFFFE0
ENDCHAR
STARTCHAR C0091-[
ENCODING 91
SWIDTH 275 0
DWIDTH 11 0
BBX 8 35 1 -7
BITMAP
FF
FF
FF
E0
E0
E0
E0
E0
E0
E0
E0
E0
E0
E0
E0
E0
E0
E0
E0
E0
E0
E0
E0
E0
E0
E0
E0
E0
E0
E0
E0
E0
FF
FF
FF
ENDCHAR
STARTCHAR C0092-\
ENCODING 92
SWIDTH 475 0
DWIDTH 19 0
BBX 19 27 0 0
BITMAP
F00000
780000
780000
3C0000
1C0000
1E0000
0F0000
0F0000
078000
078000
03C000
01C000
01E000
00F000
00F000
007800
003800
003C00
001C00
001E00
000F00
000F00
000780
000380
0003C0
0001C0
0001E0
ENDCHAR
STARTCHAR C0093-]
ENCODING 93
SWIDTH 275 0
DWIDTH 11 0
BBX 8 35 1 -7
BITMAP
FF
FF
FF
07
07
07
07
07
07
07
07
07
07
07
07
07
07
07
07
07
07
07
07
07
07
07
07
07
07
07
07
07
FF
FF
FF
ENDCHAR
STARTCHAR C0094-^
ENCODING 94
SWIDTH 475 0
DWIDTH 19 0
BBX 17 16 1 13
BITMAP
01C000
03E000
03E000
03E000
077000
077000
0F7800
0E3800
1E3C00
1C1C00
1C1C00
3C1E00
380E00
780F00
700700
F00780
ENDCHAR
STARTCHAR C0095-_
ENCODING 95
SWIDTH 550 0
DWIDTH 22 0
BBX 24 3 -1 -8
BITMAP
FFFFFF
FFFFFF
FFFFFF
ENDCHAR
STARTCHAR C0096-`
ENCODING 96
SWIDTH 225 0
DWIDTH 9 0
BBX 7 5 1 22
BITMAP
F8
78
3C
1E
0E
ENDCHAR
STARTCHAR C0097-a
ENCODING 97
SWIDTH 475 0
DWIDTH 19 0
BBX 15 21 2 -1
BITMAP
07E0
3FF8
7FFC
3FFC
187E
101E
001E
0FFE
1FFE
3FFE
7FFE
F81E
F01E
F01E
F01E
F81E
FC3E
7FFE
3FFE
1FFE
07C0
ENDCHAR
STARTCHAR C0098-b
ENCODING 98
SWIDTH 500 0
DWIDTH 20 0
BBX 16 28 2 -1
BITMAP
1000
7000
F000
F000
F000
F000
F000
F7E0
FFF8
FFFC
FFFC
FC3E
F01E
F01F
F00F
F00F
F00F
F00F
F00F
F00F
F00F
F01F
F01E
FC3E
FFFE
FFFC
FFF8
07E0
ENDCHAR
STARTCHAR C0099-c
ENCODING 99
SWIDTH 475 0
DWIDTH 19 0
BBX 15 20 2 0
BITMAP
07E0
1FF8
3FFC
7FFE
7C3E
781C
F820
F000
F000
F000
F000
F000
F000
F820
781C
7C3E
7FFE
3FFC
1FF8
07E0
ENDCHAR
STARTCHAR C0100-d
ENCODING 100
SWIDTH 500 0
DWIDTH 20 0
BBX 16 28 2 -1
BITMAP
0001
0007
000F
000F
000F
000F
000F
07EF
1FFF
3FFF
3FFF
7C3F
780F
F80F
F00F
F00F
F00F
F00F
F00F
F00F
F00F
F80F
780F
7C3F
7FFF
3FFF
1FFF
07E0
ENDCHAR
STARTCHAR C0101-e
ENCODING 101
SWIDTH 475 0
DWIDTH 19 0
BBX 15 20 2 0
BITMAP
07C0
1FF0
3FF8
3FF8
7C7C
783C
F01C
F01E
FFFE
FFFE
FFFE
FFFE
F000
F000
7810
7C3E
3FFC
3FFC
1FF8
07E0
ENDCHAR
STARTCHAR C0102-f
ENCODING 102
SWIDTH 275 0
DWIDTH 11 0
BBX 10 27 1 0
BITMAP
07C0
0FC0
1FC0
1FC0
1E00
1E00
1E00
FFC0
FFC0
FFC0
FFC0
1E00
1E00
1E00
1E00
1E00
1E00
1E00
1E00
1E00
1E00
1E00
1E00
1E00
1E00
1E00
1E00
ENDCHAR
STARTCHAR C0103-g
ENCODING 103
SWIDTH 500 0
DWIDTH 20 0
BBX 16 30 2 -10
BITMAP
07EF
1FFF
3FFF
3FFF
7C3F
780F
F80F
F00F
F00F
F00F
F00F
F00F
F00F
F00F
F80F
780F
7C3F
7FFF
3FFF
1FFF
07EF
000F
000F
001E
003E
007C
01FC
00F8
00F0
0040
ENDCHAR
STARTCHAR C0104-h
ENCODING 104
SWIDTH 475 0
DWIDTH 19 0
BBX 15 27 2 0
BITMAP
1000
7000
F000
F000
F000
F000
F000
F3E0
FFF8
FFFC
FFFC
F87C
F83E
F01E
F01E
F01E
F01E
F01E
F01E
F01E
F01E
F01E
F01E
F01E
F01E
F01E
F01E
ENDCHAR
STARTCHAR C0105-i
ENCODING 105
SWIDTH 250 0
DWIDTH 10 0
BBX 4 27 3 0
BITMAP
60
F0
F0
60
00
00
00
F0
F0
F0
F0
F0
F0
F0
F0
F0
F0
F0
F0
F0
F0
F0
F0
F0
F0
F0
F0
ENDCHAR
STARTCHAR C0106-j
ENCODING 106
SWIDTH 250 0
DWIDTH 10 0
BBX 7 37 0 -10
BITMAP
0C
1E
1E
0C
00
00
00
1E
1E
1E
1E
1E
1E
1E
1E
1E
1E
1E
1E
1E
1E
1E
1E
1E
1E
1E
1E
1E
1E
1E
3C
3C
7C
F8
78
70
20
ENDCHAR
STARTCHAR C0107-k
ENCODING 107
SWIDTH 525 0
DWIDTH 21 0
BBX 17 27 2 0
BITMAP
100000
700000
F00000
F00000
F00000
F00000
F00000
F00000
F07E00
F0F800
F1F000
F3E000
F7C000
FFC000
FFC000
FFE000
FDF000
F9F000
F0F800
F0F800
F07C00
F07C00
F03E00
F03E00
F01F00
F01F00
F00F80
ENDCHAR
STARTCHAR C0108-l
ENCODING 108
SWIDTH 250 0
DWIDTH 10 0
BBX 4 27 3 0
BITMAP
10
70
F0
F0
F0
F0
F0
F0
F0
F0
F0
F0
F0
F0
F0
F0
F0
F0
F0
F0
F0
F0
F0
F0
F0
F0
F0
ENDCHAR
STARTCHAR C0109-m
ENCODING 109
SWIDTH 775 0
DWIDTH 31 0
BBX 27 20 2 0
BITMAP
F3E07C00
FFF9FF00
FFFFFF80
FFFFFFC0
FC7FC7C0
F83F83E0
F01F01E0
F01F01E0
F01F01E0
F01F01E0
F01F01E0
F01F01E0
F01F01E0
F01F01E0
F01F01E0
F01F01E0
F01F01E0
F01F01E0
F01F01E0
F01F01E0
ENDCHAR
STARTCHAR C0110-n
ENCODING 110
SWIDTH 475 0
DWIDTH 19 0
BBX 15 20 2 0
BITMAP
F3E0
FFF8
FFFC
FFFC
F87C
F83E
F01E
F01E
F01E
F01E
F01E
F01E
F01E
F01E
F01E
F01E
F01E
F01E
F01E
F01E
ENDCHAR
STARTCHAR C0111-o
ENCODING 111
SWIDTH 475 0
DWIDTH 19 0
BBX 17 20 1 0
BITMAP
07F000
1FFC00
3FFE00
3FFE00
7C1F00
780F00
F80F80
F00780
F00780
F00780
F00780
F00780
F00780
F80F80
780F00
7C1F00
3FFE00
1FFC00
0FF800
03E000
ENDCHAR
STARTCHAR C0112-p
ENCODING 112
SWIDTH 500 0
DWIDTH 20 0
BBX 16 30 2 -10
BITMAP
F7E0
FFF8
FFFC
FFFC
FC3E
F01E
F01F
F00F
F00F
F00F
F00F
F00F
F00F
F00F
F01F
F01E
FC3E
FFFE
FFFC
FFF8
F7E0
F000
F000
F000
F000
F000
F000
F000
E000
8000
ENDCHAR
STARTCHAR C0113-q
ENCODING 113
SWIDTH 500 0
DWIDTH 20 0
BBX 16 30 2 -10
BITMAP
07EF
1FFF
3FFF
3FFF
7C3F
780F
F80F
F00F
F00F
F00F
F00F
F00F
F00F
F00F
F80F
780F
7C3F
7FFF
3FFF
1FFF
07CF
000F
000F
000F
000F
000F
000F
000F
000E
0008
ENDCHAR
STARTCHAR C0114-r
ENCODING 114
SWIDTH 350 0
DWIDTH 14 0
BBX 11 20 2 0
BITMAP
F780
FFE0
FFC0
FFC0
F8C0
F000
F000
F000
F000
F000
F000
F000
F000
F000
F000
F000
F000
F000
F000
F000
ENDCHAR
STARTCHAR C0115-s
ENCODING 115
SWIDTH 425 0
DWIDTH 17 0
BBX 15 21 1 -1
BITMAP
07E0
1FF8
3FFC
3FFE
3C38
7C08
3C00
3F00
3FC0
1FF0
07F8
01FC
007E
001E
001E
101E
3C3E
7FFC
FFFC
1FF8
07E0
ENDCHAR
STARTCHAR C0116-t
ENCODING 116
SWIDTH 300 0
DWIDTH 12 0
BBX 10 27 1 0
BITMAP
0200
0E00
1E00
1E00
1E00
1E00
1E00
FFC0
FFC0
FFC0
FFC0
1E00
1E00
1E00
1E00
1E00
1E00
1E00
1E00
1E00
1E00
1E00
1E40
1FC0
0FC0
0F80
0780
ENDCHAR
STARTCHAR C0117-u
ENCODING 117
SWIDTH 475 0
DWIDTH 19 0
BBX 15 21 2 -1
BITMAP
F01E
F01E
F01E
F01E
F01E
F01E
F01E
F01E
F01E
F01E
F01E
F01E
F01E
F01E
F01E
F83E
7C3E
7FFE
3FFE
3FFE
0F80
ENDCHAR
STARTCHAR C0118-v
ENCODING 118
SWIDTH 500 0
DWIDTH 20 0
BBX 19 20 1 0
BITMAP
F003E0
F807C0
7807C0
780780
7C0F80
3C0F00
3E1F00
3E1F00
1E1E00
1F3E00
0F3E00
0F3C00
0FFC00
07F800
07F800
07F800
03F000
03F000
01E000
01E000
ENDCHAR
STARTCHAR C0119-w
ENCODING 119
SWIDTH 650 0
DWIDTH 26 0
BBX 24 20 1 0
BITMAP
F07C0F
F07E0F
F07E1F
F87E1E
78FF1E
78FF1E
78FF1E
79EF3E
7DEFBC
3DE7BC
3FE7BC
3FC7FC
3FC3F8
1FC3F8
1F83F8
1F81F8
1F81F8
1F81F0
0F01F0
0F00F0
ENDCHAR
STARTCHAR C0120-x
ENCODING 120
SWIDTH 525 0
DWIDTH 21 0
BBX 19 20 1 0
BITMAP
7C0FC0
3E0F80
1F1F00
1F1F00
0FBE00
07FC00
07FC00
03F800
01F000
01F000
03F800
07FC00
07FC00
0FBE00
1F1F00
1F1F00
3E0F80
7C07C0
7807C0
F803E0
ENDCHAR
STARTCHAR C0121-y
ENCODING 121
SWIDTH 525 0
DWIDTH 21 0
BBX 19 30 1 -10
BITMAP
F001E0
F803E0
F803E0
7807C0
7C07C0
3C0780
3E0F80
3E0F80
1E0F00
1F1F00
1F1E00
0FBE00
0FBE00
07BC00
07FC00
07F800
03F800
03F800
03F000
01F000
01F000
01E000
03E000
03C000
07C000
07C000
078000
0F8000
0F0000
1F0000
ENDCHAR
STARTCHAR C0122-z
ENCODING 122
SWIDTH 425 0
DWIDTH 17 0
BBX 15 20 1 0
BITMAP
7FFE
7FFE
7FFE
7FFE
007C
007C
00F8
01F0
03E0
03E0
07C0
0F80
1F00
3E00
3E00
7C00
FFFE
FFFE
FFFE
FFFE
ENDCHAR
STARTCHAR C0123-{
ENCODING 123
SWIDTH 325 0
DWIDTH 13 0
BBX 11 37 1 -8
BITMAP
01E0
03E0
07E0
0700
0F00
0E00
0E00
0E00
0E00
0E00
0E00
0E00
0E00
0E00
0E00
1E00
3C00
F800
E000
F800
3C00
1E00
1E00
0E00
0E00
0E00
0E00
0E00
0E00
0E00
0E00
0E00
0F00
0F00
07E0
07E0
03E0
ENDCHAR
STARTCHAR C0124-|
ENCODING 124
SWIDTH 200 0
DWIDTH 8 0
BBX 2 37 3 -8
BITMAP
C0
C0
C0
C0
C0
C0
C0
C0
C0
C0
C0
C0
C0
C0
C0
C0
C0
C0
C0
C0
C0
C0
C0
C0
C0
C0
C0
C0
C0
C0
C0
C0
C0
C0
C0
C0
C0
ENDCHAR
STARTCHAR C0125-}
ENCODING 125
SWIDTH 325 0
DWIDTH 13 0
BBX 11 37 1 -8
BITMAP
F000
FC00
FC00
1E00
0E00
0E00
0E00
0E00
0E00
0E00
0E00
0E00
0E00
0F00
0F00
0700
0780
03E0
00E0
03E0
07C0
0700
0F00
0F00
0E00
0E00
0E00
0E00
0E00
0E00
0E00
0E00
0E00
1E00
FE00
FC00
F800
ENDCHAR
STARTCHAR C0126-~
ENCODING 126
SWIDTH 575 0
DWIDTH 23 0
BBX 20 6 2 11
BITMAP
3F0010
FFF070
FFFFF0
FFFFF0
C0FFE0
801F80
ENDCHAR
STARTCHAR C0127
ENCODING 127
SWIDTH 500 0
DWIDTH 20 0
BBX 15 32 3 0
BITMAP
FFFE
FFFE
C00E
C00E
C00E
C00E
C00E
C00E
C00E
C00E
C00E
C00E
C00E
C00E
C00E
C00E
C00E
C00E
C00E
C00E
C00E
C00E
C00E
C00E
C00E
C00E
C00E
C00E
C00E
FFFE
FFFE
FFFE
ENDCHAR
STARTCHAR C0128
ENCODING 128
SWIDTH 575 0
DWIDTH 23 0
BBX 20 27 1 0
BITMAP
00FE00
03FF80
07FFC0
0FFFE0
0F83E0
1F01D0
1E0100
1E0000
3E0000
3C0000
FFF000
FFF000
3C0000
3C0000
3C0000
FFF000
FFF000
3C0000
3E0000
1E0000
1E0100
1F01C0
0F83F0
0FFFE0
07FFC0
03FF80
00FE00
ENDCHAR
STARTCHAR C0129
ENCODING 129
SWIDTH 500 0
DWIDTH 20 0
BBX 15 32 3 0
BITMAP
FFFE
FFFE
C00E
C00E
C00E
C00E
C00E
C00E
C00E
C00E
C00E
C00E
C00E
C00E
C00E
C00E
C00E
C00E
C00E
C00E
C00E
C00E
C00E
C00E
C00E
C00E
C00E
C00E
C00E
FFFE
FFFE
FFFE
ENDCHAR
STARTCHAR C0130
ENCODING 130
SWIDTH 200 0
DWIDTH 8 0
BBX 4 8 2 -4
BITMAP
60
F0
F0
70
30
20
60
80
ENDCHAR
STARTCHAR C0131
ENCODING 131
SWIDTH 275 0
DWIDTH 11 0
BBX 10 37 1 -10
BITMAP
07C0
0FC0
1FC0
1FC0
1E00
1E00
1E00
FFC0
FFC0
FFC0
FFC0
1E00
1E00
1E00
1E00
1E00
1E00
1E00
1E00
1E00
1E00
1E00
1E00
1E00
1E00
1E00
1E00
1E00
1E00
1E00
1E00
1E00
1E00
1E00
1E00
1C00
1000
ENDCHAR
STARTCHAR C0132
ENCODING 132
SWIDTH 375 0
DWIDTH 15 0
BBX 11 8 2 -4
BITMAP
60C0
F1E0
F1E0
70E0
3060
2040
60C0
8100
ENDCHAR
STARTCHAR C0133
ENCODING 133
SWIDTH 650 0
DWIDTH 26 0
BBX 22 4 2 0
BITMAP
603018
F0783C
F0783C
603018
ENDCHAR
STARTCHAR C0134
ENCODING 134
SWIDTH 450 0
DWIDTH 18 0
BBX 16 32 1 -4
BITMAP
0180
0180
0180
0180
0180
0180
0180
0180
FFFF
FFFF
0180
0180
0180
0180
0180
0180
0180
0180
0180
0180
0180
0180
0180
0180
0180
0180
0180
0180
0180
0180
0180
0180
ENDCHAR
STARTCHAR C0135
ENCODING 135
SWIDTH 450 0
DWIDTH 18 0
BBX 16 32 1 -4
BITMAP
0180
0180
0180
0180
0180
0180
0180
0180
FFFF
FFFF
0180
0180
0180
0180
0180
0180
0180
0180
0180
0180
0180
0180
FFFF
FFFF
0180
0180
0180
0180
0180
0180
0180
0180
ENDCHAR
STARTCHAR C0136
ENCODING 136
SWIDTH 325 0
DWIDTH 13 0
BBX 11 6 1 21
BITMAP
1F00
3F00
3F80
7B80
F1C0
E0E0
ENDCHAR
STARTCHAR C0137
ENCODING 137
SWIDTH 700 0
DWIDTH 28 0
BBX 26 27 1 0
BITMAP
1C018000
22010000
41030000
40020000
40060000
410C0000
220C0000
1C180000
00180000
00300000
00200000
00600000
00400000
00C00000
01800000
01800000
03000000
02000000
06000000
043C0F00
0C621080
18C12040
18C12040
30C12040
20C12040
60621080
C03C0F00
ENDCHAR
STARTCHAR C0138
ENCODING 138
SWIDTH 500 0
DWIDTH 20 0
BBX 18 34 1 0
BITMAP
1E0E00
0F1C00
07B800
03F000
03F000
000000
000000
03F000
0FF800
1FFE00
3FFE00
3E1F00
780C00
780000
780000
7C0000
7E0000
3FE000
3FFC00
0FFE00
03FF00
003F80
000F80
0007C0
0003C0
0003C0
1003C0
7803C0
FC0780
7E1F80
3FFF00
1FFE00
0FFC00
03F000
ENDCHAR
STARTCHAR C0139
ENCODING 139
SWIDTH 275 0
DWIDTH 11 0
BBX 9 16 1 4
BITMAP
0F80
0F00
1F00
3E00
3E00
7C00
7800
F800
F800
7800
7C00
3E00
3E00
1F00
0F00
0F80
ENDCHAR
STARTCHAR C0140
ENCODING 140
SWIDTH 875 0
DWIDTH 35 0
BBX 31 28 2 -1
BITMAP
03F9FFFE
07FFFFFE
1FFFFFFE
1FFFFFFE
3E0FE000
7C07E000
7803E000
7803E000
7803E000
F001E000
F001E000
F001FFE0
F001FFE0
F001FFE0
F001FFE0
F001E000
F001E000
F001E000
F003E000
7803E000
7803E000
7C07E000
7E0FE000
3FFFFFFE
1FFFFFFE
1FFFFFFE
0FFFFFFE
03F80000
ENDCHAR
STARTCHAR C0141
ENCODING 141
SWIDTH 500 0
DWIDTH 20 0
BBX 15 32 3 0
BITMAP
FFFE
FFFE
C00E
C00E
C00E
C00E
C00E
C00E
C00E
C00E
C00E
C00E
C00E
C00E
C00E
C00E
C00E
C00E
C00E
C00E
C00E
C00E
C00E
C00E
C00E
C00E
C00E
C00E
C00E
FFFE
FFFE
FFFE
ENDCHAR
STARTCHAR C0142
ENCODING 142
SWIDTH 525 0
DWIDTH 21 0
BBX 19 34 1 0
BITMAP
0E0E00
071C00
07BC00
03F800
01F000
000000
000000
7FFFE0
7FFFE0
7FFFE0
7FFFE0
000FC0
000FC0
001F80
001F00
003F00
007E00
007C00
00FC00
01F800
01F000
03F000
07E000
07C000
0FC000
1F8000
1F0000
3F0000
7E0000
7C0000
FFFFE0
FFFFE0
FFFFE0
FFFFE0
ENDCHAR
STARTCHAR C0143
ENCODING 143
SWIDTH 500 0
DWIDTH 20 0
BBX 15 32 3 0
BITMAP
FFFE
FFFE
C00E
C00E
C00E
C00E
C00E
C00E
C00E
C00E
C00E
C00E
C00E
C00E
C00E
C00E
C00E
C00E
C00E
C00E
C00E
C00E
C00E
C00E
C00E
C00E
C00E
C00E
C00E
FFFE
FFFE
FFFE
ENDCHAR
STARTCHAR C0144
ENCODING 144
SWIDTH 500 0
DWIDTH 20 0
BBX 15 32 3 0
BITMAP
FFFE
FFFE
C00E
C00E
C00E
C00E
C00E
C00E
C00E
C00E
C00E
C00E
C00E
C00E
C00E
C00E
C00E
C00E
C00E
C00E
C00E
C00E
C00E
C00E
C00E
C00E
C00E
C00E
C00E
FFFE
FFFE
FFFE
ENDCHAR
STARTCHAR C0145
ENCODING 145
SWIDTH 200 0
DWIDTH 8 0
BBX 4 8 2 19
BITMAP
10
60
40
C0
E0
F0
F0
60
ENDCHAR
STARTCHAR C0146
ENCODING 146
SWIDTH 200 0
DWIDTH 8 0
BBX 4 8 2 19
BITMAP
60
F0
F0
70
30
20
60
80
ENDCHAR
STARTCHAR C0147
ENCODING 147
SWIDTH 375 0
DWIDTH 15 0
BBX 11 8 2 19
BITMAP
1020
60C0
4080
C180
E1C0
F1E0
F1E0
60C0
ENDCHAR
STARTCHAR C0148
ENCODING 148
SWIDTH 375 0
DWIDTH 15 0
BBX 11 8 2 19
BITMAP
60C0
F1E0
F1E0
70E0
3060
2040
60C0
8100
ENDCHAR
STARTCHAR C0149
ENCODING 149
SWIDTH 625 0
DWIDTH 25 0
BBX 21 20 2 2
BITMAP
01FC00
07FF00
0FFF80
1FFFC0
3FFFE0
7FFFF0
7FFFF0
7FFFF0
7FFFF0
FFFFF8
FFFFF8
7FFFF0
7FFFF0
7FFFF0
7FFFF0
3FFFE0
1FFFC0
0FFF80
07FF00
01FC00
ENDCHAR
STARTCHAR C0150
ENCODING 150
SWIDTH 525 0
DWIDTH 21 0
BBX 19 4 1 11
BITMAP
FFFFE0
FFFFE0
FFFFE0
FFFFE0
ENDCHAR
STARTCHAR C0151
ENCODING 151
SWIDTH 1000 0
DWIDTH 40 0
BBX 38 4 1 11
BITMAP
FFFFFFFFFC
FFFFFFFFFC
FFFFFFFFFC
FFFFFFFFFC
ENDCHAR
STARTCHAR C0152
ENCODING 152
SWIDTH 325 0
DWIDTH 13 0
BBX 11 5 1 22
BITMAP
0060
3C60
7FE0
FFC0
C780
ENDCHAR
STARTCHAR C0153
ENCODING 153
SWIDTH 750 0
DWIDTH 30 0
BBX 27 14 1 13
BITMAP
FFE700E0
FFE781E0
FFE781E0
0E07C3E0
0E07C3E0
0E07E7E0
0E07F7E0
0E077EE0
0E077EE0
0E073CE0
0E073CE0
0E0718E0
0E0718E0
0E0710E0
ENDCHAR
STARTCHAR C0154
ENCODING 154
SWIDTH 425 0
DWIDTH 17 0
BBX 15 27 1 -1
BITMAP
3838
1C70
0EF0
0FE0
07C0
0000
07E0
1FF8
3FFC
3FFE
3C38
7C08
3C00
3F00
3FC0
1FF0
07F8
01FC
007E
001E
001E
101E
3C3E
7FFC
FFFC
1FF8
07E0
ENDCHAR
STARTCHAR C0155
ENCODING 155
SWIDTH 275 0
DWIDTH 11 0
BBX 9 16 1 4
BITMAP
F800
7800
7C00
3E00
3E00
1F00
0F00
0F80
0F80
0F00
1F00
3E00
3E00
7C00
7800
F800
ENDCHAR
STARTCHAR C0156
ENCODING 156
SWIDTH 725 0
DWIDTH 29 0
BBX 27 20 1 0
BITMAP
07E07C00
1FF9FF00
3FFFFF80
7FFFFF80
7C3FC7C0
781F83C0
F81F01C0
F00F01E0
F00FFFE0
F00FFFE0
F00FFFE0
F00FFFE0
F00F0000
F81F0000
781F8100
7C3FC3E0
3FFFFFC0
3FFFFFC0
1FF9FF80
07E07E00
ENDCHAR
STARTCHAR C0157
ENCODING 157
SWIDTH 500 0
DWIDTH 20 0
BBX 15 32 3 0
BITMAP
FFFE
FFFE
C00E
C00E
C00E
C00E
C00E
C00E
C00E
C00E
C00E
C00E
C00E
C00E
C00E
C00E
C00E
C00E
C00E
C00E
C00E
C00E
C00E
C00E
C00E
C00E
C00E
C00E
C00E
FFFE
FFFE
FFFE
ENDCHAR
STARTCHAR C0158
ENCODING 158
SWIDTH 425 0
DWIDTH 17 0
BBX 15 26 1 0
BITMAP
3838
1C70
1EF0
0FE0
07C0
0000
7FFE
7FFE
7FFE
7FFE
007C
007C
00F8
01F0
03E0
03E0
07C0
0F80
1F00
3E00
3E00
7C00
FFFE
FFFE
FFFE
FFFE
ENDCHAR
STARTCHAR C0159
ENCODING 159
SWIDTH 625 0
DWIDTH 25 0
BBX 22 33 1 0
BITMAP
018300
03C780
03C780
018300
000000
000000
F8007C
F80078
7C00F8
3E01F0
3E01F0
1F03E0
0F87C0
0F87C0
07CF80
07CF80
03FF00
01FE00
01FE00
00FC00
00FC00
007800
007800
007800
007800
007800
007800
007800
007800
007800
007800
007800
007800
ENDCHAR
STARTCHAR C0160
ENCODING 160
SWIDTH 250 0
DWIDTH 10 0
BBX 1 1 0 -1
BITMAP
00
ENDCHAR
STARTCHAR C0161
ENCODING 161
SWIDTH 200 0
DWIDTH 8 0
BBX 4 27 2 0
BITMAP
60
F0
F0
60
00
00
00
70
70
70
F0
F0
F0
F0
F0
F0
F0
F0
F0
F0
F0
F0
F0
F0
F0
F0
F0
ENDCHAR
STARTCHAR C0162
ENCODING 162
SWIDTH 475 0
DWIDTH 19 0
BBX 15 27 2 0
BITMAP
0180
0180
0180
07E0
1FF8
3FFC
7FFE
7DBE
799C
F9A0
F180
F180
F180
F180
F180
F180
F180
F9A0
799C
7DBE
7FFE
3FFC
1FF8
07E0
0180
0180
0180
ENDCHAR
STARTCHAR C0163
ENCODING 163
SWIDTH 475 0
DWIDTH 19 0
BBX 16 27 2 0
BITMAP
01F8
03FC
07FE
0FFF
0F0F
1E04
1E00
1E00
1E00
1E00
1E00
7FE0
7FE0
7FE0
7FE0
1E00
1E00
1E00
1E00
1E00
3E00
7C00
7C00
FFFF
FFFF
FFFF
FFFF
ENDCHAR
STARTCHAR C0164
ENCODING 164
SWIDTH 550 0
DWIDTH 22 0
BBX 18 19 2 5
BITMAP
400080
E001C0
F3F3C0
7FFF80
3FFF00
3E1F00
380700
780780
700380
700380
700380
700380
380700
380700
3E1F00
7FFF80
FFFFC0
F3F3C0
400080
ENDCHAR
STARTCHAR C0165
ENCODING 165
SWIDTH 625 0
DWIDTH 25 0
BBX 23 27 1 0
BITMAP
7C003E
3E007C
3E007C
1F00F8
1F00F8
0F81F0
07C3E0
07C3E0
03E7C0
03E780
01FF80
00FF00
00FF00
007E00
003C00
003C00
FFFFFE
FFFFFE
FFFFFE
FFFFFE
003C00
003C00
003C00
003C00
003C00
003C00
003C00
ENDCHAR
STARTCHAR C0166
ENCODING 166
SWIDTH 200 0
DWIDTH 8 0
BBX 2 37 3 -8
BITMAP
C0
C0
C0
C0
C0
C0
C0
C0
C0
C0
C0
C0
C0
C0
C0
00
00
00
00
00
00
00
C0
C0
C0
C0
C0
C0
C0
C0
C0
C0
C0
C0
C0
C0
C0
ENDCHAR
STARTCHAR C0167
ENCODING 167
SWIDTH 425 0
DWIDTH 17 0
BBX 15 30 1 -3
BITMAP
07E0
1FF8
3FFC
7FFE
7838
7810
7C00
7E00
3FC0
1FF0
1FF8
3DFC
787C
781E
781E
7C1E
7E1E
3FFC
1FFC
07F8
01FC
007E
001E
001E
101E
383E
7FFC
FFFC
1FF8
07E0
ENDCHAR
STARTCHAR C0168
ENCODING 168
SWIDTH 350 0
DWIDTH 14 0
BBX 10 4 2 23
BITMAP
6180
F3C0
F3C0
6180
ENDCHAR
STARTCHAR C0169
ENCODING 169
SWIDTH 725 0
DWIDTH 29 0
BBX 27 27 1 0
BITMAP
003F8000
01FFF000
03C07800
0F001E00
1C000700
18000300
301F8180
707FC1C0
60F0E0C0
60C070C0
C1C02060
C1800060
C1800060
C1800060
C1800060
C1804060
C1C03060
60C070C0
60E0E0C0
707FC1C0
301F8180
18000300
1C000700
0F001E00
03C07800
01FFF000
003F8000
ENDCHAR
STARTCHAR C0170
ENCODING 170
SWIDTH 325 0
DWIDTH 13 0
BBX 9 13 2 14
BITMAP
3E00
FF00
FF80
4780
0380
3F80
7F80
E380
E380
E380
F380
7F80
3F80
ENDCHAR
STARTCHAR C0171
ENCODING 171
SWIDTH 525 0
DWIDTH 21 0
BBX 19 16 1 4
BITMAP
0F83E0
0F87C0
1F0F80
1E0F00
3E1F00
3C1E00
7C3E00
F87C00
F87C00
7C3E00
3C1E00
3E1F00
1E0F00
1F0F80
0F87C0
0F83E0
ENDCHAR
STARTCHAR C0172
ENCODING 172
SWIDTH 525 0
DWIDTH 21 0
BBX 18 10 2 5
BITMAP
FFFFC0
FFFFC0
FFFFC0
FFFFC0
0003C0
0003C0
0003C0
0003C0
0003C0
0003C0
ENDCHAR
STARTCHAR C0173
ENCODING 173
SWIDTH 300 0
DWIDTH 12 0
BBX 9 4 1 11
BITMAP
FF80
FF80
FF80
FF80
ENDCHAR
STARTCHAR C0174
ENCODING 174
SWIDTH 700 0
DWIDTH 28 0
BBX 26 26 1 1
BITMAP
007F8000
01FFE000
07C07800
0F001C00
1E000E00
3C000700
39FF0300
71FF8180
7181C180
F180C1C0
E180C0C0
E181C0C0
E1FF80C0
E1FF00C0
E18E00C0
E18700C0
F18301C0
71838180
7181C180
3980E300
3C000700
1E000E00
0F001C00
07C07800
01FFE000
007F8000
ENDCHAR
STARTCHAR C0175
ENCODING 175
SWIDTH 325 0
DWIDTH 13 0
BBX 11 2 1 24
BITMAP
FFE0
FFE0
ENDCHAR
STARTCHAR C0176
ENCODING 176
SWIDTH 375 0
DWIDTH 15 0
BBX 11 11 2 16
BITMAP
1F00
3F80
71C0
E0E0
C060
C060
C060
E0E0
71C0
3F80
1F00
ENDCHAR
STARTCHAR C0177
ENCODING 177
SWIDTH 500 0
DWIDTH 20 0
BBX 18 23 1 0
BITMAP
01E000
01E000
01E000
01E000
01E000
01E000
01E000
FFFFC0
FFFFC0
FFFFC0
FFFFC0
01E000
01E000
01E000
01E000
01E000
01E000
01E000
000000
FFFFC0
FFFFC0
FFFFC0
FFFFC0
ENDCHAR
STARTCHAR C0178
ENCODING 178
SWIDTH 300 0
DWIDTH 12 0
BBX 10 16 1 11
BITMAP
1F00
3F80
7BC0
E0C0
20C0
00C0
0180
0780
0E00
1C00
3000
6000
6000
FFC0
FFC0
FFC0
ENDCHAR
STARTCHAR C0179
ENCODING 179
SWIDTH 325 0
DWIDTH 13 0
BBX 10 16 1 11
BITMAP
1F00
3F80
71C0
00C0
00C0
00C0
0780
0780
01C0
00C0
00C0
60C0
F1C0
7F80
3F80
1E00
ENDCHAR
STARTCHAR C0180
ENCODING 180
SWIDTH 225 0
DWIDTH 9 0
BBX 7 5 1 22
BITMAP
3E
3C
78
70
E0
ENDCHAR
STARTCHAR C0181
ENCODING 181
SWIDTH 475 0
DWIDTH 19 0
BBX 15 26 2 -6
BITMAP
F01E
F01E
F01E
F01E
F01E
F01E
F01E
F01E
F01E
F01E
F01E
F01E
F01E
F01E
F01E
F83E
FC3E
FFFE
FFFE
FFFE
F7DC
F010
F000
F000
E000
8000
ENDCHAR
STARTCHAR C0182
ENCODING 182
SWIDTH 375 0
DWIDTH 15 0
BBX 13 27 1 0
BITMAP
1FF8
3FF8
7E60
FE60
FE60
FE60
FE60
FE60
FE60
7E60
3E60
1E60
0660
0660
0660
0660
0660
0660
0660
0660
0660
0660
0660
0660
0660
0660
0660
ENDCHAR
STARTCHAR C0183
ENCODING 183
SWIDTH 200 0
DWIDTH 8 0
BBX 4 4 2 16
BITMAP
60
F0
F0
60
ENDCHAR
STARTCHAR C0184
ENCODING 184
SWIDTH 275 0
DWIDTH 11 0
BBX 8 8 2 -8
BITMAP
30
3C
3F
07
07
87
FE
7C
ENDCHAR
STARTCHAR C0185
ENCODING 185
SWIDTH 200 0
DWIDTH 8 0
BBX 4 16 2 11
BITMAP
70
F0
F0
70
70
70
70
70
70
70
70
70
70
70
70
70
ENDCHAR
STARTCHAR C0186
ENCODING 186
SWIDTH 325 0
DWIDTH 13 0
BBX 11 13 1 14
BITMAP
1F00
3F80
7FC0
F1E0
E0E0
E0E0
E0E0
E0E0
E0E0
F1C0
7FC0
3F80
1F00
ENDCHAR
STARTCHAR C0187
ENCODING 187
SWIDTH 525 0
DWIDTH 21 0
BBX 19 16 1 4
BITMAP
F87C00
7C3E00
3C1E00
3E1F00
1E0F00
1F0F80
0F87C0
0F83C0
0F83E0
0F87C0
1F0F80
1E0F00
3E1F00
3C1E00
7C3E00
F87C00
ENDCHAR
STARTCHAR C0188
ENCODING 188
SWIDTH 850 0
DWIDTH 34 0
BBX 29 27 3 0
BITMAP
70000600
F0000C00
F0001C00
70001800
70003000
70007000
70006000
7000C000
7001C000
700180E0
700301E0
700303E0
700607E0
700E07E0
700C0FE0
70181EE0
70383CE0
003078E0
006070E0
00E0E0E0
00C1FFF8
0181FFF8
038000E0
030000E0
060000E0
0E0000E0
1C0000E0
ENDCHAR
STARTCHAR C0189
ENCODING 189
SWIDTH 925 0
DWIDTH 37 0
BBX 32 27 3 0
BITMAP
70000600
F0000C00
F0001C00
70001800
70003000
70007000
70006000
7000C000
7000C000
700180F0
700383FC
700307FE
7006070E
700E0E06
700C0007
7018000E
7038001E
0030003C
006000F8
00E001E0
00C003C0
01800380
03800700
03000700
06000FFF
0E000FFF
1C000FFF
ENDCHAR
STARTCHAR C0190
ENCODING 190
SWIDTH 900 0
DWIDTH 36 0
BBX 32 27 2 0
BITMAP
1F0000E0
3F8000C0
7FC00180
71E00300
20E00300
00E00600
01E00E00
03C00C00
03E01800
00F0381C
0070303C
0070607C
E070E0FC
F0F0C0FC
7FE181FC
3FC383DC
0F03079C
00060F1C
000E0E1C
000C1E1C
001C3FFF
00383FFF
0030001C
0070001C
0060001C
00C0001C
01C0001C
ENDCHAR
STARTCHAR C0191
ENCODING 191
SWIDTH 525 0
DWIDTH 21 0
BBX 17 27 2 0
BITMAP
018000
03C000
03C000
018000
000000
000000
000000
03C000
03C000
078000
078000
0F8000
0F0000
1F0000
3E0000
3C0000
780000
F80000
F00000
F00800
F00E00
F80F80
7C3F00
7FFE00
3FFC00
1FF800
07E000
ENDCHAR
STARTCHAR C0192
ENCODING 192
SWIDTH 600 0
DWIDTH 24 0
BBX 22 33 1 0
BITMAP
01F000
007800
003800
001C00
001C00
000200
007800
007C00
00FC00
00FC00
00FE00
01FE00
01FE00
03FF00
03EF00
03CF00
07CF80
07C780
078780
0F87C0
0F83C0
0FFFC0
1FFFE0
1FFFE0
1FFFF0
3E01F0
3C00F0
3C00F8
7C00F8
780078
78007C
F8007C
F0003C
ENDCHAR
STARTCHAR C0193
ENCODING 193
SWIDTH 600 0
DWIDTH 24 0
BBX 22 33 1 0
BITMAP
003E00
007800
007800
00F000
00E000
010000
007800
007C00
00FC00
00FC00
00FE00
01FE00
01FE00
03FF00
03EF00
03CF00
07CF80
07C780
078780
0F87C0
0F83C0
0FFFC0
1FFFE0
1FFFE0
1FFFF0
3E01F0
3C00F0
3C00F8
7C00F8
780078
78007C
F8007C
F0003C
ENDCHAR
STARTCHAR C0194
ENCODING 194
SWIDTH 600 0
DWIDTH 24 0
BBX 22 34 1 0
BITMAP
007800
00FC00
01FE00
01CE00
038700
070380
000000
007800
007C00
00FC00
00FC00
00FE00
01FE00
01FE00
03FF00
03EF00
03CF00
07CF80
07C780
078780
0F87C0
0F83C0
0FFFC0
1FFFE0
1FFFE0
1FFFF0
3E01F0
3C00F0
3C00F8
7C00F8
780078
78007C
F8007C
F0003C
ENDCHAR
STARTCHAR C0195
ENCODING 195
SWIDTH 600 0
DWIDTH 24 0
BBX 22 33 1 0
BITMAP
000180
01E300
03FF00
03FF00
031E00
040000
007800
007C00
00FC00
00FC00
00FE00
01FE00
01FE00
03FF00
03EF00
03CF00
07CF80
07C780
078780
0F87C0
0F83C0
0FFFC0
1FFFE0
1FFFE0
1FFFF0
3E01F0
3C00F0
3C00F8
7C00F8
780078
78007C
F8007C
F0003C
ENDCHAR
STARTCHAR C0196
ENCODING 196
SWIDTH 600 0
DWIDTH 24 0
BBX 22 33 1 0
BITMAP
018600
03CF00
03CF00
018600
000000
000000
007800
007C00
00FC00
00FC00
00FE00
01FE00
01FE00
03FF00
03FF00
03CF00
07CF80
07CF80
078780
0F87C0
0F87C0
0FFFC0
1FFFE0
1FFFE0
1FFFF0
3E01F0
3C00F0
3C00F8
7C00F8
780078
78007C
F8007C
F0003C
ENDCHAR
STARTCHAR C0197
ENCODING 197
SWIDTH 600 0
DWIDTH 24 0
BBX 22 34 1 0
BITMAP
007800
008400
010200
010000
010200
008400
007800
007800
007C00
00FC00
00FC00
00FE00
01FE00
01FE00
03FF00
03FF00
03CF80
07CF80
078780
0787C0
0F87C0
0F03C0
0FFFE0
1FFFE0
1FFFE0
1FFFF0
3E00F0
3E00F0
3C00F8
7C0078
7C0078
78007C
F8003C
F8003C
ENDCHAR
STARTCHAR C0198
ENCODING 198
SWIDTH 875 0
DWIDTH 35 0
BBX 32 27 1 0
BITMAP
0007FFFF
0007FFFF
000FFFFF
000FFFFF
001FF000
001FF000
003EF000
003EF000
007CF000
007CF000
00F8F000
00F8FFF0
01F0FFF0
01F0FFF0
03E0FFF0
03FFF000
07FFF000
07FFF000
0FFFF000
0F80F000
0F00F000
1F00F000
1E00F000
3E00FFFF
3C00FFFF
7C00FFFF
F800FFFF
ENDCHAR
STARTCHAR C0199
ENCODING 199
SWIDTH 550 0
DWIDTH 22 0
BBX 18 35 2 -8
BITMAP
03F800
0FFE00
1FFF00
3FFF80
3E0F80
7C0740
780400
780000
F80000
F00000
F00000
F00000
F00000
F00000
F00000
F00000
F00000
F00000
F80000
780000
780400
7C0700
3E0FC0
3FFF80
1FFF00
0FFE00
03F800
006000
007800
007E00
000E00
000E00
020E00
03FC00
01F800
ENDCHAR
STARTCHAR C0200
ENCODING 200
SWIDTH 525 0
DWIDTH 21 0
BBX 16 33 2 0
BITMAP
07C0
03C0
01E0
00E0
0070
0000
FFFF
FFFF
FFFF
FFFF
F000
F000
F000
F000
F000
F000
F000
FFF0
FFF0
FFF0
FFF0
F000
F000
F000
F000
F000
F000
F000
F000
FFFF
FFFF
FFFF
FFFF
ENDCHAR
STARTCHAR C0201
ENCODING 201
SWIDTH 525 0
DWIDTH 21 0
BBX 16 33 2 0
BITMAP
01F0
01E0
03C0
0780
0700
0000
FFFF
FFFF
FFFF
FFFF
F000
F000
F000
F000
F000
F000
F000
FFF0
FFF0
FFF0
FFF0
F000
F000
F000
F000
F000
F000
F000
F000
FFFF
FFFF
FFFF
FFFF
ENDCHAR
STARTCHAR C0202
ENCODING 202
SWIDTH 525 0
DWIDTH 21 0
BBX 16 34 2 0
BITMAP
03E0
07E0
0FF0
0E78
1C38
2004
0000
FFFF
FFFF
FFFF
FFFF
F000
F000
F000
F000
F000
F000
F000
FFF0
FFF0
FFF0
FFF0
F000
F000
F000
F000
F000
F000
F000
F000
FFFF
FFFF
FFFF
FFFF
ENDCHAR
STARTCHAR C0203
ENCODING 203
SWIDTH 525 0
DWIDTH 21 0
BBX 16 33 2 0
BITMAP
0C18
1E3C
1E3C
0C18
0000
0000
FFFF
FFFF
FFFF
FFFF
F000
F000
F000
F000
F000
F000
F000
FFF0
FFF0
FFF0
FFF0
F000
F000
F000
F000
F000
F000
F000
F000
FFFF
FFFF
FFFF
FFFF
ENDCHAR
STARTCHAR C0204
ENCODING 204
SWIDTH 275 0
DWIDTH 11 0
BBX 7 33 2 0
BITMAP
F8
78
3C
1C
0E
00
78
78
78
78
78
78
78
78
78
78
78
78
78
78
78
78
78
78
78
78
78
78
78
78
78
78
78
ENDCHAR
STARTCHAR C0205
ENCODING 205
SWIDTH 275 0
DWIDTH 11 0
BBX 7 33 2 0
BITMAP
3E
3C
78
70
E0
00
78
78
78
78
78
78
78
78
78
78
78
78
78
78
78
78
78
78
78
78
78
78
78
78
78
78
78
ENDCHAR
STARTCHAR C0206
ENCODING 206
SWIDTH 275 0
DWIDTH 11 0
BBX 11 34 0 0
BITMAP
1F00
3F80
3F80
7BC0
F1E0
E0E0
0000
1E00
1E00
1E00
1E00
1E00
1E00
1E00
1E00
1E00
1E00
1E00
1E00
1E00
1E00
1E00
1E00
1E00
1E00
1E00
1E00
1E00
1E00
1E00
1E00
1E00
1E00
1E00
ENDCHAR
STARTCHAR C0207
ENCODING 207
SWIDTH 300 0
DWIDTH 12 0
BBX 11 33 0 0
BITMAP
60C0
F1E0
F1E0
60C0
0000
0000
1E00
1E00
1E00
1E00
1E00
1E00
1E00
1E00
1E00
1E00
1E00
1E00
1E00
1E00
1E00
1E00
1E00
1E00
1E00
1E00
1E00
1E00
1E00
1E00
1E00
1E00
1E00
ENDCHAR
STARTCHAR C0208
ENCODING 208
SWIDTH 600 0
DWIDTH 24 0
BBX 21 27 2 0
BITMAP
1FFC00
1FFF00
1FFF80
1FFFC0
1E07E0
1E01F0
1E01F0
1E00F0
1E00F8
1E0078
1E0078
1E0078
FFE078
FFE078
FFE078
FFE078
1E0078
1E0078
1E00F8
1E00F0
1E01F0
1E01F0
1E07E0
1FFFC0
1FFF80
1FFF00
1FFC00
ENDCHAR
STARTCHAR C0209
ENCODING 209
SWIDTH 550 0
DWIDTH 22 0
BBX 18 33 2 0
BITMAP
000600
078C00
0FFC00
0FFC00
0C7800
100000
F003C0
F803C0
F803C0
FC03C0
FE03C0
FE03C0
FF03C0
FF03C0
FF83C0
FF83C0
F7C3C0
F3E3C0
F3E3C0
F1F3C0
F1F3C0
F0FBC0
F0FFC0
F07FC0
F07FC0
F03FC0
F01FC0
F01FC0
F00FC0
F00FC0
F007C0
F007C0
F003C0
ENDCHAR
STARTCHAR C0210
ENCODING 210
SWIDTH 575 0
DWIDTH 23 0
BBX 20 33 1 0
BITMAP
03E000
00F000
007000
007800
003800
000400
01F800
07FE00
1FFF80
1FFF80
3F0FC0
7C03E0
7C03E0
7801E0
F801F0
F000F0
F000F0
F000F0
F000F0
F000F0
F000F0
F000F0
F000F0
F000F0
F801F0
7801E0
7801E0
7C03E0
3E0FC0
1FFF80
1FFF80
07FE00
01F800
ENDCHAR
STARTCHAR C0211
ENCODING 211
SWIDTH 575 0
DWIDTH 23 0
BBX 20 33 1 0
BITMAP
007C00
00F000
00F000
01E000
01C000
020000
01F800
07FE00
1FFF80
1FFF80
3F0FC0
7C03E0
7C03E0
7801E0
F801F0
F000F0
F000F0
F000F0
F000F0
F000F0
F000F0
F000F0
F000F0
F000F0
F801F0
7801E0
7801E0
7C03E0
3E0FC0
1FFF80
1FFF80
07FE00
01F800
ENDCHAR
STARTCHAR C0212
ENCODING 212
SWIDTH 575 0
DWIDTH 23 0
BBX 20 34 1 0
BITMAP
00F800
01F800
03FC00
079E00
070F00
080000
000000
01F800
07FE00
1FFF80
1FFF80
3F0FC0
7C03E0
7C03E0
7801E0
F801F0
F000F0
F000F0
F000F0
F000F0
F000F0
F000F0
F000F0
F000F0
F000F0
F801F0
7801E0
7801E0
7C03E0
3E0FC0
1FFF80
1FFF80
07FE00
01F800
ENDCHAR
STARTCHAR C0213
ENCODING 213
SWIDTH 575 0
DWIDTH 23 0
BBX 20 33 1 0
BITMAP
000300
03C700
07FE00
07FE00
063C00
000000
01F800
07FE00
1FFF80
1FFF80
3F0FC0
7C03E0
7C03E0
7801E0
F801F0
F000F0
F000F0
F000F0
F000F0
F000F0
F000F0
F000F0
F000F0
F000F0
F801F0
7801E0
7801E0
7C03E0
3E0FC0
1FFF80
1FFF80
07FE00
01F800
ENDCHAR
STARTCHAR C0214
ENCODING 214
SWIDTH 575 0
DWIDTH 23 0
BBX 20 33 2 0
BITMAP
060C00
0F1E00
0F1E00
060C00
000000
000000
01F800
07FE00
1FFF80
1FFF80
3E0FC0
7C07E0
7803E0
7803E0
F803F0
F001F0
F001F0
F001F0
F001F0
F001F0
F001F0
F001F0
F001F0
F001F0
F803F0
7803E0
7803E0
7C07E0
3E0FC0
1FFF80
1FFF80
07FE00
01F800
ENDCHAR
STARTCHAR C0215
ENCODING 215
SWIDTH 575 0
DWIDTH 23 0
BBX 17 17 3 6
BITMAP
200200
700700
F80F80
7C1F00
3E3E00
1F7C00
0FF800
07F000
03E000
07F000
0FF800
1F7C00
3E3E00
7C1F00
F80F80
700700
200200
ENDCHAR
STARTCHAR C0216
ENCODING 216
SWIDTH 575 0
DWIDTH 23 0
BBX 22 27 0 0
BITMAP
00FC3C
03FF78
0FFFF0
0FFFF0
1F87E0
3E01F0
3E03F0
3C07F0
7C07F8
780F78
781E78
781C78
783C78
787878
787078
78F078
79E078
79C078
7FC0F8
3F80F0
3F00F0
3F01F0
1F07E0
1FFFC0
3FFFC0
7BFF00
F0FC00
ENDCHAR
STARTCHAR C0217
ENCODING 217
SWIDTH 550 0
DWIDTH 22 0
BBX 18 33 2 0
BITMAP
07C000
01E000
00E000
00F000
007000
000800
F003C0
F003C0
F003C0
F003C0
F003C0
F003C0
F003C0
F003C0
F003C0
F003C0
F003C0
F003C0
F003C0
F003C0
F003C0
F003C0
F003C0
F003C0
F003C0
F003C0
F807C0
780780
7E1F80
3FFF00
1FFE00
0FFC00
03F000
ENDCHAR
STARTCHAR C0218
ENCODING 218
SWIDTH 550 0
DWIDTH 22 0
BBX 18 33 2 0
BITMAP
00F800
01E000
01C000
03C000
038000
040000
F003C0
F003C0
F003C0
F003C0
F003C0
F003C0
F003C0
F003C0
F003C0
F003C0
F003C0
F003C0
F003C0
F003C0
F003C0
F003C0
F003C0
F003C0
F003C0
F003C0
F807C0
780780
7E1F80
3FFF00
1FFE00
0FFC00
03F000
ENDCHAR
STARTCHAR C0219
ENCODING 219
SWIDTH 550 0
DWIDTH 22 0
BBX 18 34 2 0
BITMAP
01E000
03F000
07F800
073800
0E1C00
100200
000000
F003C0
F003C0
F003C0
F003C0
F003C0
F003C0
F003C0
F003C0
F003C0
F003C0
F003C0
F003C0
F003C0
F003C0
F003C0
F003C0
F003C0
F003C0
F003C0
F003C0
F807C0
780780
7E1F80
3FFF00
1FFE00
0FFC00
03F000
ENDCHAR
STARTCHAR C0220
ENCODING 220
SWIDTH 550 0
DWIDTH 22 0
BBX 18 33 2 0
BITMAP
061800
0F3C00
0F3C00
061800
000000
000000
F003C0
F003C0
F003C0
F003C0
F003C0
F003C0
F003C0
F003C0
F003C0
F003C0
F003C0
F003C0
F003C0
F003C0
F003C0
F003C0
F003C0
F003C0
F003C0
F003C0
F807C0
780780
7E1F80
3FFF00
1FFE00
0FFC00
03F000
ENDCHAR
STARTCHAR C0221
ENCODING 221
SWIDTH 625 0
DWIDTH 25 0
BBX 22 33 2 0
BITMAP
007C00
007800
00F000
00E000
01C000
000000
F8007C
F80078
7C00F8
3E01F0
3E01F0
1F03E0
0F87C0
0F87C0
07CF80
07CF80
03FF00
01FE00
01FE00
00FC00
00FC00
007800
007800
007800
007800
007800
007800
007800
007800
007800
007800
007800
007800
ENDCHAR
STARTCHAR C0222
ENCODING 222
SWIDTH 550 0
DWIDTH 22 0
BBX 18 27 2 0
BITMAP
F00000
F00000
F00000
F00000
F00000
F00000
FFF800
FFFE00
FFFF00
FFFF80
F00F80
F007C0
F003C0
F003C0
F003C0
F007C0
F00780
FFFF80
FFFF00
FFFE00
FFF800
F00000
F00000
F00000
F00000
F00000
F00000
ENDCHAR
STARTCHAR C0223
ENCODING 223
SWIDTH 550 0
DWIDTH 22 0
BBX 16 33 3 -6
BITMAP
0FC0
1FF0
3FF8
7FFC
7C7C
F83E
F01E
F01E
F01E
F03E
F7FC
F7FC
F7FC
F7FE
F03E
F01F
F00F
F00F
F00F
F00F
F01F
F01E
F07E
F7FC
F7F8
F7F0
F7C0
F000
F000
F000
F000
E000
8000
ENDCHAR
STARTCHAR C0224
ENCODING 224
SWIDTH 475 0
DWIDTH 19 0
BBX 15 28 2 -1
BITMAP
0F80
07C0
03C0
01E0
00E0
0010
0000
03C0
1FF0
7FF8
3FFC
1C7E
101E
001E
0FFE
1FFE
3FFE
7FFE
F81E
F01E
F01E
F01E
F81E
FC3E
7FFE
3FFE
1FFE
07C0
ENDCHAR
STARTCHAR C0225
ENCODING 225
SWIDTH 475 0
DWIDTH 19 0
BBX 15 28 2 -1
BITMAP
03F0
03C0
0780
0700
0E00
0000
0000
03C0
1FF0
7FF8
3FFC
1C7E
101E
001E
0FFE
1FFE
3FFE
7FFE
F81E
F01E
F01E
F01E
F81E
FC3E
7FFE
3FFE
1FFE
07C0
ENDCHAR
STARTCHAR C0226
ENCODING 226
SWIDTH 475 0
DWIDTH 19 0
BBX 15 27 2 -1
BITMAP
07C0
07E0
0FE0
1E70
1C38
2000
03C0
1FF0
7FF8
3FFC
1C7E
101E
001E
0FFE
1FFE
3FFE
7FFE
F81E
F01E
F01E
F01E
F81E
FC3E
7FFE
3FFE
1FFE
07C0
ENDCHAR
STARTCHAR C0227
ENCODING 227
SWIDTH 475 0
DWIDTH 19 0
BBX 15 28 2 -1
BITMAP
001C
0F18
1FF8
3FF0
30E0
0000
0000
03C0
1FF0
7FF8
3FFC
1C7E
101E
001E
0FFE
1FFE
3FFE
7FFE
F81E
F01E
F01E
F01E
F81E
FC3E
7FFE
3FFE
1FFE
07C0
ENDCHAR
STARTCHAR C0228
ENCODING 228
SWIDTH 475 0
DWIDTH 19 0
BBX 15 27 2 -1
BITMAP
1830
3C78
3C78
1830
0000
0000
03C0
1FF0
7FF8
3FFC
1C7E
101E
001E
0FFE
1FFE
3FFE
7FFE
F81E
F01E
F01E
F01E
F81E
FC3E
7FFE
7FFE
1FFE
07C0
ENDCHAR
STARTCHAR C0229
ENCODING 229
SWIDTH 450 0
DWIDTH 18 0
BBX 14 29 2 -1
BITMAP
0380
0440
0820
0800
0820
0440
0380
0000
0780
3FE0
FFF0
7FF8
38FC
203C
003C
0FFC
3FFC
7FFC
7FFC
F83C
F03C
F03C
F03C
F03C
F87C
7FFC
7FFC
3FFC
0F80
ENDCHAR
STARTCHAR C0230
ENCODING 230
SWIDTH 750 0
DWIDTH 30 0
BBX 26 21 2 -1
BITMAP
07E0F800
3FFBFE00
7FFFFF00
3FFFFF00
183F8F80
001F0780
001E0380
0FFE03C0
1FFFFFC0
3FFFFFC0
7FFFFFC0
F81FFFC0
F01E0000
F01E0000
F01F0200
F83F87C0
FFFFFF80
7FFFFF80
7FFBFF00
1FF0FC00
0FE00000
ENDCHAR
STARTCHAR C0231
ENCODING 231
SWIDTH 475 0
DWIDTH 19 0
BBX 15 28 2 -8
BITMAP
07E0
1FF8
3FFC
7FFE
7C3E
781C
F820
F000
F000
F000
F000
F000
F000
F820
781C
7C3E
7FFE
3FFC
1FF8
07E0
0180
01E0
01F8
0038
0038
0838
0FF0
07E0
ENDCHAR
STARTCHAR C0232
ENCODING 232
SWIDTH 475 0
DWIDTH 19 0
BBX 15 27 2 0
BITMAP
0F80
0780
03C0
01C0
00E0
0000
0000
07C0
1FF0
3FF8
3FF8
7C7C
783C
F01C
F01E
FFFE
FFFE
FFFE
FFFE
F000
F000
7810
7C3E
3FFC
3FFC
1FF8
07E0
ENDCHAR
STARTCHAR C0233
ENCODING 233
SWIDTH 475 0
DWIDTH 19 0
BBX 15 27 2 0
BITMAP
03E0
03C0
0780
0700
0E00
0000
0000
07C0
1FF0
3FF8
3FF8
7C7C
783C
F01C
F01E
FFFE
FFFE
FFFE
FFFE
F000
F000
7810
7C3E
3FFC
3FFC
1FF8
07E0
ENDCHAR
STARTCHAR C0234
ENCODING 234
SWIDTH 475 0
DWIDTH 19 0
BBX 15 26 2 0
BITMAP
07C0
07C0
0FE0
1CF0
1870
2008
07C0
1FF0
3FF8
3FF8
7C7C
783C
F01C
F01E
FFFE
FFFE
FFFE
FFFE
F000
F000
7810
7C3E
3FFC
3FFC
1FF8
07E0
ENDCHAR
STARTCHAR C0235
ENCODING 235
SWIDTH 475 0
DWIDTH 19 0
BBX 15 26 2 0
BITMAP
1830
3C78
3C78
1830
0000
0000
07C0
1FF0
3FF8
3FF8
7C7C
783C
F01C
F01E
FFFE
FFFE
FFFE
FFFE
F000
F000
7810
7C3E
7FFC
3FFC
1FF8
07E0
ENDCHAR
STARTCHAR C0236
ENCODING 236
SWIDTH 250 0
DWIDTH 10 0
BBX 8 27 1 0
BITMAP
F8
3C
3C
1E
0E
01
00
3C
3C
3C
3C
3C
3C
3C
3C
3C
3C
3C
3C
3C
3C
3C
3C
3C
3C
3C
3C
ENDCHAR
STARTCHAR C0237
ENCODING 237
SWIDTH 250 0
DWIDTH 10 0
BBX 8 27 1 0
BITMAP
1F
3C
38
70
70
80
00
3C
3C
3C
3C
3C
3C
3C
3C
3C
3C
3C
3C
3C
3C
3C
3C
3C
3C
3C
3C
ENDCHAR
STARTCHAR C0238
ENCODING 238
SWIDTH 250 0
DWIDTH 10 0
BBX 12 26 -1 0
BITMAP
0F00
1F80
3FC0
39C0
70E0
8010
0F00
0F00
0F00
0F00
0F00
0F00
0F00
0F00
0F00
0F00
0F00
0F00
0F00
0F00
0F00
0F00
0F00
0F00
0F00
0F00
ENDCHAR
STARTCHAR C0239
ENCODING 239
SWIDTH 250 0
DWIDTH 10 0
BBX 10 26 0 0
BITMAP
6180
F3C0
F3C0
6180
0000
0000
1E00
1E00
1E00
1E00
1E00
1E00
1E00
1E00
1E00
1E00
1E00
1E00
1E00
1E00
1E00
1E00
1E00
1E00
1E00
1E00
ENDCHAR
STARTCHAR C0240
ENCODING 240
SWIDTH 450 0
DWIDTH 18 0
BBX 16 27 1 0
BITMAP
0808
1E1C
1F7C
3FFE
0FF0
1FE0
7FF0
3DF8
30F8
07FC
1FFC
3FFE
7FFE
7C3E
F81F
F00F
F00F
F00F
F00F
F00F
F00F
781E
7C3E
7FFE
3FFC
1FF8
07E0
ENDCHAR
STARTCHAR C0241
ENCODING 241
SWIDTH 475 0
DWIDTH 19 0
BBX 15 27 2 0
BITMAP
0018
0F18
1FF0
3FF0
30E0
0000
0000
F3E0
FFF8
FFFC
FFFC
F87C
F83E
F01E
F01E
F01E
F01E
F01E
F01E
F01E
F01E
F01E
F01E
F01E
F01E
F01E
F01E
ENDCHAR
STARTCHAR C0242
ENCODING 242
SWIDTH 475 0
DWIDTH 19 0
BBX 17 27 1 0
BITMAP
07C000
03C000
01E000
00E000
007000
000000
000000
07F000
1FFC00
3FFE00
3FFE00
7C1F00
780F00
F80F80
F00780
F00780
F00780
F00780
F00780
F00780
F80F80
780F00
7C1F00
3FFE00
1FFC00
0FF800
03E000
ENDCHAR
STARTCHAR C0243
ENCODING 243
SWIDTH 475 0
DWIDTH 19 0
BBX 17 27 1 0
BITMAP
01F000
01E000
03C000
038000
070000
000000
000000
07F000
1FFC00
3FFE00
3FFE00
7C1F00
780F00
F80F80
F00780
F00780
F00780
F00780
F00780
F00780
F80F80
780F00
7C1F00
3FFE00
1FFC00
0FF800
03E000
ENDCHAR
STARTCHAR C0244
ENCODING 244
SWIDTH 475 0
DWIDTH 19 0
BBX 17 26 1 0
BITMAP
03E000
07F000
0F7000
0E3800
1C1C00
200200
07F000
1FFC00
3FFE00
3FFE00
7C1F00
780F00
F80F80
F00780
F00780
F00780
F00780
F00780
F00780
F80F80
780F00
7C1F00
3FFE00
1FFC00
0FF800
03E000
ENDCHAR
STARTCHAR C0245
ENCODING 245
SWIDTH 475 0
DWIDTH 19 0
BBX 17 27 1 0
BITMAP
001C00
0F1800
1FF800
3FF000
30E000
000000
000000
07F000
1FFC00
3FFE00
3FFE00
7C1F00
780F00
F80F80
F00780
F00780
F00780
F00780
F00780
F00780
F80F80
780F00
7C1F00
3FFE00
1FFC00
0FF800
03E000
ENDCHAR
STARTCHAR C0246
ENCODING 246
SWIDTH 450 0
DWIDTH 18 0
BBX 16 26 1 0
BITMAP
0C18
1E3C
1E3C
0C18
0000
0000
07E0
1FF8
3FFC
7FFE
7C3E
781E
F81F
F00F
F00F
F00F
F00F
F00F
F00F
F81F
781E
7C3E
3FFC
3FFC
1FF8
07E0
ENDCHAR
STARTCHAR C0247
ENCODING 247
SWIDTH 575 0
DWIDTH 23 0
BBX 19 17 2 7
BITMAP
00E000
01F000
01F000
01F000
00E000
000000
000000
FFFFE0
FFFFE0
FFFFE0
000000
000000
00E000
01F000
01F000
01F000
00E000
ENDCHAR
STARTCHAR C0248
ENCODING 248
SWIDTH 475 0
DWIDTH 19 0
BBX 17 20 1 0
BITMAP
07F780
1FFF00
3FFF00
3FFE00
7C3F00
783F00
F87F80
F0F780
F0E780
F1E780
F3C780
F38780
F78780
FF0F80
7E0F00
7E1F00
3FFE00
7FFC00
7FF800
F3E000
ENDCHAR
STARTCHAR C0249
ENCODING 249
SWIDTH 475 0
DWIDTH 19 0
BBX 15 28 2 -1
BITMAP
0F80
0780
03C0
01C0
00E0
0000
0000
0000
F01E
F01E
F01E
F01E
F01E
F01E
F01E
F01E
F01E
F01E
F01E
F01E
F01E
F01E
F83E
7C3E
7FFE
3FFE
3FFE
0F80
ENDCHAR
STARTCHAR C0250
ENCODING 250
SWIDTH 475 0
DWIDTH 19 0
BBX 15 28 2 -1
BITMAP
03E0
03C0
0780
0700
0E00
0000
0000
0000
F01E
F01E
F01E
F01E
F01E
F01E
F01E
F01E
F01E
F01E
F01E
F01E
F01E
F01E
F83E
7C3E
7FFE
3FFE
3FFE
0F80
ENDCHAR
STARTCHAR C0251
ENCODING 251
SWIDTH 475 0
DWIDTH 19 0
BBX 15 27 2 -1
BITMAP
07C0
07C0
0EE0
1E70
1C30
2008
0000
F01E
F01E
F01E
F01E
F01E
F01E
F01E
F01E
F01E
F01E
F01E
F01E
F01E
F01E
F83E
7C3E
7FFE
3FFE
3FFE
0F80
ENDCHAR
STARTCHAR C0252
ENCODING 252
SWIDTH 475 0
DWIDTH 19 0
BBX 15 27 2 -1
BITMAP
0C30
1E78
1E78
0C30
0000
0000
0000
F01E
F01E
F01E
F01E
F01E
F01E
F01E
F01E
F01E
F01E
F01E
F01E
F01E
F01E
F83E
7C3E
7FFE
3FFE
3FFE
0F80
ENDCHAR
STARTCHAR C0253
ENCODING 253
SWIDTH 525 0
DWIDTH 21 0
BBX 19 37 1 -10
BITMAP
00F800
00F000
01E000
01C000
038000
000000
000000
000000
F003E0
F803E0
7803C0
7C07C0
7C07C0
3C0780
3E0F80
1E0F00
1F1F00
1F1F00
0F1E00
0FBE00
0FBC00
07FC00
07FC00
03F800
03F800
03F000
01F000
01F000
01E000
03E000
03C000
07C000
07C000
078000
0F8000
0F0000
1F0000
ENDCHAR
STARTCHAR C0254
ENCODING 254
SWIDTH 500 0
DWIDTH 20 0
BBX 16 37 2 -10
BITMAP
1000
7000
F000
F000
F000
F000
F000
F7E0
FFF8
FFFC
FFFC
FC3E
F01E
F01F
F00F
F00F
F00F
F00F
F00F
F00F
F00F
F01F
F01E
FC3E
FFFE
FFFC
FFF8
F7E0
F000
F000
F000
F000
F000
F000
F000
E000
8000
ENDCHAR
STARTCHAR C0255
ENCODING 255
SWIDTH 525 0
DWIDTH 21 0
BBX 21 36 0 -10
BITMAP
030600
078F00
078F00
030600
000000
000000
000000
F800F8
7C01F0
7C01F0
3E01E0
3E03E0
1E03C0
1F07C0
1F07C0
0F8780
0F8F80
078F00
07DF00
07DF00
03FE00
03FE00
01FC00
01FC00
01FC00
00F800
00F800
00F000
01F000
01F000
03E000
03E000
07C000
07C000
07C000
0F8000
ENDCHAR
ENDFONT
